<svg width="24" height="24" viewBox="0 0 24 24" fill="none" xmlns="http://www.w3.org/2000/svg">
<path d="M1.9766 1.999C1.4243 1.9945 0.981096 2.4467 0.976596 2.999C0.972096 3.55129 1.4244 3.99449 1.9766 3.99899C2.7142 4.00499 3.30429 4.49889 3.75779 5.43649C4.18179 6.31299 4.3056 7.03429 4.3204 7.12399L5.50779 14.7802C5.87149 16.6035 7.5997 17.999 9.4141 17.999H16.5386C18.3536 17.999 20.0896 16.5906 20.4456 14.8115L21.6646 6.68649C21.9476 5.27269 20.9036 3.99899 19.4146 3.99899H5.25779C4.50599 2.7601 3.3598 2.0102 1.9766 1.999ZM6.13279 5.99899H19.4146C19.6416 5.99899 19.7396 6.11929 19.6956 6.34279L18.4766 14.4678C18.3156 15.2648 17.4006 15.999 16.5386 15.999H9.4141C8.5531 15.999 7.6454 15.2808 7.4766 14.4365L6.3204 6.81149C6.2855 6.59879 6.20479 6.26169 6.13279 5.99899ZM8.4766 18.999C7.6482 18.999 6.9766 19.6706 6.9766 20.499C6.9766 21.3274 7.6482 21.999 8.4766 21.999C9.305 21.999 9.9766 21.3274 9.9766 20.499C9.9766 19.6706 9.305 18.999 8.4766 18.999ZM17.4766 18.999C16.6486 18.999 15.9766 19.6706 15.9766 20.499C15.9766 21.3274 16.6486 21.999 17.4766 21.999C18.3046 21.999 18.9766 21.3274 18.9766 20.499C18.9766 19.6706 18.3046 18.999 17.4766 18.999Z" fill="black" style="fill:black;fill-opacity:1;"/>
</svg>
